<?xml version="1.0" encoding="UTF-8"?>
<svg version="1.1" xmlns="http://www.w3.org/2000/svg" width="512" height="512">
<path d="M0 0 C4.07539014 1.35846338 5.00425999 4.0035044 7 7.5625 C16.63837703 24.14506205 27.96252297 39.67590519 40.96875 53.78125 C42.78958125 55.77015799 44.52087406 57.80682976 46.25 59.875 C85.03372426 104.07247066 139.59914422 115.57795307 195.5 121 C247.73474615 126.06645634 295.77297349 135.74088452 335 173 C336.30723613 174.11039362 337.61942184 175.21499818 338.9375 176.3125 C350.17397189 186.15583208 359.16998896 198.03602131 368 210 C368.45117188 210.60457031 368.90234375 211.20914063 369.3671875 211.83203125 C374.65107683 218.92525238 379.52009786 226.23642109 384.1875 233.75 C384.6820166 234.53753662 385.1765332 235.32507324 385.68603516 236.13647461 C386.13382324 236.87003174 386.58161133 237.60358887 387.04296875 238.359375 C387.44539795 239.01389648 387.84782715 239.66841797 388.26245117 240.34277344 C388.50584229 240.8896582 388.7492334 241.43654297 389 242 C388.67 242.66 388.34 243.32 388 244 C387.47535156 243.42894531 386.95070313 242.85789063 386.41015625 242.26953125 C365.68375025 220.57750234 339.42991731 205.87934717 308.99511719 204.93798828 C267.2922843 204.34432115 227.74142559 226.81242418 192.31347656 246.48486328 C180.41579139 253.0524033 168.18743054 258.99335694 156 265 C159.68541016 268.16368171 163.35080975 270.3309338 167.72265625 272.43359375 C168.69638687 272.90462776 168.69638687 272.90462776 169.68978882 273.38517761 C171.81103412 274.4089697 173.93667298 275.42326059 176.0625 276.4375 C177.55171409 277.15436897 179.04072528 277.87165957 180.52954102 278.58935547 C188.65119358 282.4946307 196.80962504 286.3090092 205.00585938 290.05517578 C230.95806265 301.92716405 256.58434714 315.16493707 279 333 C279.93070312 333.73863281 280.86140625 334.47726562 281.8203125 335.23828125 C287.18022164 339.56054781 292.37125967 344.03861773 297.45703125 348.6796875 C299.23466568 350.30167652 301.02481821 351.91000455 302.82421875 353.5078125 C307.59328921 357.76289038 312.11550736 362.01838172 316.22265625 366.91796875 C317.4820489 368.39325729 318.7868515 369.83032396 320.12109375 371.23828125 C335.1588953 387.11563166 347.1793691 405.68533801 359 424 C359.58990723 424.91313965 360.17981445 425.8262793 360.78759766 426.76708984 C362.39506398 429.2726697 363.98368978 431.78878793 365.5625 434.3125 C366.03397461 435.05322754 366.50544922 435.79395508 366.99121094 436.55712891 C368.07604985 438.32366281 369.05002449 440.15743005 370 442 C369.67 442.99 369.34 443.98 369 445 C368.46375 444.5875 367.9275 444.175 367.375 443.75 C344.30983338 426.75461407 317.74432907 420.38917052 289.4909668 424.52929688 C254.26312163 430.07994729 222.14076435 448.11795211 191.2734375 465.1015625 C167.54099428 478.15833115 143.20525757 490.70715032 117 498 C116.20674316 498.22155762 115.41348633 498.44311523 114.59619141 498.67138672 C86.79324192 506.08664302 57.98099344 503.28588168 32.875 489.25 C21.49950181 482.65769128 6.98907385 473.28018324 0 462 C-0.47864034 459.14234501 -0.66674885 456.89135181 -0.61523914 454.04648781 C-0.62100836 453.2595361 -0.62677759 452.47258439 -0.63272163 451.66178566 C-0.64597426 449.02038026 -0.62351425 446.38049378 -0.60127258 443.73916626 C-0.60345274 441.82832653 -0.60783024 439.91748825 -0.61421841 438.00665796 C-0.6254122 432.75249589 -0.60538002 427.49884228 -0.58032811 422.24474502 C-0.55876174 416.58017594 -0.56604084 410.91563617 -0.56983948 405.2510376 C-0.57246288 395.43565691 -0.55675821 385.62044223 -0.52865028 375.8051033 C-0.4880373 361.61375025 -0.4749953 347.42247758 -0.46871033 333.23107271 C-0.4577637 310.20721932 -0.42452239 287.18347065 -0.37719727 264.15966797 C-0.33127488 241.79248515 -0.29585694 219.42532599 -0.2746582 197.05810547 C-0.27400057 196.36864079 -0.27334294 195.67917612 -0.27266538 194.96881858 C-0.26607278 188.04492571 -0.25969371 181.12103265 -0.25347109 174.19713944 C-0.20126637 116.13136625 -0.11303562 58.06568537 0 0 Z " fill="#DF2846" transform="translate(61,5)"/>
<path d="M0 0 C4.07539014 1.35846338 5.00425999 4.0035044 7 7.5625 C16.63837703 24.14506205 27.96252297 39.67590519 40.96875 53.78125 C42.78958125 55.77015799 44.52087406 57.80682976 46.25 59.875 C85.03372426 104.07247066 139.59914422 115.57795307 195.5 121 C247.73474615 126.06645634 295.77297349 135.74088452 335 173 C336.30723613 174.11039362 337.61942184 175.21499818 338.9375 176.3125 C350.17397189 186.15583208 359.16998896 198.03602131 368 210 C368.45117188 210.60457031 368.90234375 211.20914063 369.3671875 211.83203125 C374.65107683 218.92525238 379.52009786 226.23642109 384.1875 233.75 C384.6820166 234.53753662 385.1765332 235.32507324 385.68603516 236.13647461 C386.13382324 236.87003174 386.58161133 237.60358887 387.04296875 238.359375 C387.44539795 239.01389648 387.84782715 239.66841797 388.26245117 240.34277344 C388.50584229 240.8896582 388.7492334 241.43654297 389 242 C388.67 242.66 388.34 243.32 388 244 C387.47535156 243.42894531 386.95070313 242.85789063 386.41015625 242.26953125 C365.68375025 220.57750234 339.42991731 205.87934717 308.99511719 204.93798828 C267.2922843 204.34432115 227.74142559 226.81242418 192.31347656 246.48486328 C180.41579139 253.0524033 168.18743054 258.99335694 156 265 C159.68541016 268.16368171 163.35080975 270.3309338 167.72265625 272.43359375 C168.69638687 272.90462776 168.69638687 272.90462776 169.68978882 273.38517761 C171.81103412 274.4089697 173.93667298 275.42326059 176.0625 276.4375 C177.55171409 277.15436897 179.04072528 277.87165957 180.52954102 278.58935547 C188.65119358 282.4946307 196.80962504 286.3090092 205.00585938 290.05517578 C230.95806265 301.92716405 256.58434714 315.16493707 279 333 C279.93070312 333.73863281 280.86140625 334.47726562 281.8203125 335.23828125 C287.18022164 339.56054781 292.37125967 344.03861773 297.45703125 348.6796875 C299.23466568 350.30167652 301.02481821 351.91000455 302.82421875 353.5078125 C307.59328921 357.76289038 312.11550736 362.01838172 316.22265625 366.91796875 C317.4820489 368.39325729 318.7868515 369.83032396 320.12109375 371.23828125 C335.1588953 387.11563166 347.1793691 405.68533801 359 424 C359.58990723 424.91313965 360.17981445 425.8262793 360.78759766 426.76708984 C362.39506398 429.2726697 363.98368978 431.78878793 365.5625 434.3125 C366.03397461 435.05322754 366.50544922 435.79395508 366.99121094 436.55712891 C368.07604985 438.32366281 369.05002449 440.15743005 370 442 C369.67 442.99 369.34 443.98 369 445 C368.46375 444.5875 367.9275 444.175 367.375 443.75 C344.30983338 426.75461407 317.74432907 420.38917052 289.4909668 424.52929688 C254.26312163 430.07994729 222.14076435 448.11795211 191.2734375 465.1015625 C167.54099428 478.15833115 143.20525757 490.70715032 117 498 C116.20674316 498.22155762 115.41348633 498.44311523 114.59619141 498.67138672 C86.79324192 506.08664302 57.98099344 503.28588168 32.875 489.25 C21.49950181 482.65769128 6.98907385 473.28018324 0 462 C-0.47864034 459.14234501 -0.66674885 456.89135181 -0.61523914 454.04648781 C-0.62100836 453.2595361 -0.62677759 452.47258439 -0.63272163 451.66178566 C-0.64597426 449.02038026 -0.62351425 446.38049378 -0.60127258 443.73916626 C-0.60345274 441.82832653 -0.60783024 439.91748825 -0.61421841 438.00665796 C-0.6254122 432.75249589 -0.60538002 427.49884228 -0.58032811 422.24474502 C-0.55876174 416.58017594 -0.56604084 410.91563617 -0.56983948 405.2510376 C-0.57246288 395.43565691 -0.55675821 385.62044223 -0.52865028 375.8051033 C-0.4880373 361.61375025 -0.4749953 347.42247758 -0.46871033 333.23107271 C-0.4577637 310.20721932 -0.42452239 287.18347065 -0.37719727 264.15966797 C-0.33127488 241.79248515 -0.29585694 219.42532599 -0.2746582 197.05810547 C-0.27400057 196.36864079 -0.27334294 195.67917612 -0.27266538 194.96881858 C-0.26607278 188.04492571 -0.25969371 181.12103265 -0.25347109 174.19713944 C-0.20126637 116.13136625 -0.11303562 58.06568537 0 0 Z M12 32 C11.79407127 86.64319371 11.63544921 141.28634827 11.54041203 195.92985359 C11.52915546 202.37869209 11.51750658 208.82752983 11.50561523 215.27636719 C11.50325444 216.56023306 11.50089365 217.84409892 11.49846131 219.16686982 C11.45928257 239.96439964 11.38831214 260.76170593 11.30562484 281.55910307 C11.22150791 302.89376188 11.17148089 324.22830348 11.15320355 345.56312132 C11.14084464 358.73159223 11.10178907 371.89943137 11.0287518 385.06770784 C10.98123572 394.09354207 10.96678595 403.11904894 10.9784876 412.14499921 C10.98426141 417.35540944 10.97531451 422.56471455 10.92715073 427.77492905 C10.88337635 432.5450923 10.88112145 437.31340674 10.91190995 442.08365482 C10.9157153 443.80926036 10.90427272 445.53498088 10.87605136 447.26035982 C10.51608374 456.48141802 10.51608374 456.48141802 13.95598805 464.75094128 C16.2095218 466.79276738 18.41165141 468.41460317 21 470 C22.13867785 470.83373883 23.27677148 471.66827665 24.4140625 472.50390625 C50.01550477 488.91748298 77.43927779 495.29353235 107.75 489.1875 C140.22040269 481.90712872 170.94514154 465.46912122 199.63435364 449.03256226 C205.1310668 445.88504373 210.73556678 442.98728929 216.4375 440.2265625 C219.86732595 438.55937152 223.27881505 436.85842349 226.6875 435.1484375 C262.59750943 417.30321881 300.84229288 404.2840949 340.49609375 417.1328125 C341.32238281 417.41898437 342.14867187 417.70515625 343 418 C334.64842627 400.46193439 318.3781086 385.21601723 304.875 371.625 C303.9689502 370.70960449 303.06290039 369.79420898 302.12939453 368.85107422 C284.97472681 351.77707594 265.03468054 337.85266918 244 326 C243.0217627 325.44844238 242.04352539 324.89688477 241.03564453 324.32861328 C226.70518265 316.31196702 212.09872045 309.11197737 197.16796875 302.2890625 C173.43962093 291.44386739 150.03376686 280.03245371 128 266 C130.53437121 264.31041919 132.54953782 263.30126811 135.34765625 262.21484375 C158.6651602 252.94725515 180.99430908 241.54215351 202.93359375 229.39599609 C243.96133439 206.77953165 289.36085297 184.93075644 337 198 C339.85810342 198.96907058 342.5838241 199.99963392 345.3203125 201.265625 C346.99988347 202.13353175 346.99988347 202.13353175 349 202 C347.7040639 199.15094559 346.33419618 197.07840212 344.12890625 194.86328125 C343.56059082 194.2906958 342.99227539 193.71811035 342.40673828 193.12817383 C341.79813965 192.52900146 341.18954102 191.9298291 340.5625 191.3125 C339.93069824 190.68819092 339.29889648 190.06388184 338.64794922 189.4206543 C297.06549917 148.77824701 245.38155627 138.75913309 189.54296875 133.5234375 C187.69528267 133.34927454 185.84762863 133.17477145 184 133 C182.90896973 132.89719727 181.81793945 132.79439453 180.69384766 132.68847656 C131.29652714 127.95785184 88.21416344 114.10803564 52 79 C51.44070801 78.46648926 50.88141602 77.93297852 50.30517578 77.38330078 C38.65077913 66.24330508 29.06247901 54.06290818 19.70239258 40.97290039 C17.34171071 37.69702503 14.88818013 34.81306838 12 32 Z " fill="#C9C9C8" transform="translate(61,5)"/>
<path d="M0 0 C3.71236477 3.63300122 6.81649875 7.35143144 9.75 11.625 C16.79874024 21.67766716 24.59218715 31.05258125 33 40 C33.52303711 40.55703613 34.04607422 41.11407227 34.58496094 41.68798828 C66.1264506 74.99372367 106.05437333 93.0298152 151.234375 98.65283203 C154.08579583 99.01076992 156.93336748 99.39232755 159.78125 99.77734375 C170.0698856 101.14396854 180.3361613 102.23801649 190.6875 103 C224.06046821 105.50239336 257.49634618 111.49478637 287 128 C287.6280957 128.34643555 288.25619141 128.69287109 288.90332031 129.04980469 C303.91273842 137.40706092 316.64141958 148.14809182 329 160 C329.85464844 160.81339844 330.70929688 161.62679687 331.58984375 162.46484375 C335.65709825 166.41772905 335.65709825 166.41772905 337 168 C337 168.66 337 169.32 337 170 C336.45214844 169.82984375 335.90429688 169.6596875 335.33984375 169.484375 C330.0218247 167.85870414 324.6792308 166.33142638 319.3125 164.875 C318.09175781 164.54242188 316.87101562 164.20984375 315.61328125 163.8671875 C270.079928 152.93918272 222.55554771 179.63752394 184.125 200.9375 C162.13061705 213.11292425 139.73187263 224.59910877 116 233 C120.17742257 236.56649516 124.62925191 239.27955767 129.375 242 C130.20588135 242.47711426 131.0367627 242.95422852 131.89282227 243.44580078 C150.04822884 253.77945912 168.74445271 262.79153841 187.72460938 271.49658203 C228.62178604 290.26855683 265.32035324 312.29942537 297.375 344.125 C298.29063721 345.03121094 299.20627441 345.93742187 300.1496582 346.87109375 C306.19005925 352.94059061 311.70562584 359.2728573 317 366 C317.66451172 366.84240234 318.32902344 367.68480469 319.01367188 368.55273438 C320.87258849 370.92393601 322.71992725 373.30358379 324.5625 375.6875 C325.18962891 376.49638672 325.81675781 377.30527344 326.46289062 378.13867188 C327.97657294 380.09143761 329.48893585 382.04520811 331 384 C330.67 384.66 330.34 385.32 330 386 C329.17757813 385.73445313 328.35515625 385.46890625 327.5078125 385.1953125 C326.39148438 384.84210938 325.27515625 384.48890625 324.125 384.125 C323.03445313 383.77695312 321.94390625 383.42890625 320.8203125 383.0703125 C274.31644762 370.04162234 226.61289407 395.53903487 187 417.5 C163.16147475 430.64572464 138.91330771 443.46912016 113 452 C111.75347656 452.43183594 110.50695312 452.86367188 109.22265625 453.30859375 C106.1652668 454.32031171 103.11896632 455.20005786 100 456 C98.86046875 456.29648437 97.7209375 456.59296875 96.546875 456.8984375 C68.42823173 463.20488218 40.35819922 458.21430978 16 443 C11.48204159 439.90123413 7.18764845 436.5294103 3 433 C2.45879523 432.60576125 1.91759045 432.21152251 1.35998553 431.80533713 C-0.77816764 428.96700743 -0.37220562 426.42357469 -0.36914349 422.91538715 C-0.37260502 422.18592494 -0.37606655 421.45646272 -0.37963298 420.70489559 C-0.3876234 418.24131875 -0.37407436 415.77832089 -0.36076355 413.31477356 C-0.36207083 411.53851883 -0.36469582 409.76226466 -0.36853105 407.98601359 C-0.37526316 403.09004141 -0.36320601 398.1942648 -0.34819686 393.29831755 C-0.33527992 388.0242923 -0.33962288 382.75027868 -0.34190369 377.47624207 C-0.34347918 368.33365565 -0.3340412 359.1911333 -0.31719017 350.048563 C-0.29284203 336.82983866 -0.28499919 323.6111454 -0.2812262 310.39240106 C-0.27465513 288.94753691 -0.25467621 267.50270692 -0.22631836 246.05786133 C-0.19879473 225.22225109 -0.17755285 204.38665013 -0.16479492 183.55102539 C-0.16400675 182.26740546 -0.16321858 180.98378553 -0.16240653 179.66126803 C-0.1584915 173.22192936 -0.15470036 166.78259061 -0.15097082 160.34325182 C-0.11985451 106.89547759 -0.0670009 53.44774046 0 0 Z M7 18 C6.65669591 70.18848895 6.39237051 122.37686386 6.23402006 174.56625979 C6.21525937 180.72711775 6.19584455 186.88797349 6.17602539 193.04882812 C6.17209073 194.27534769 6.16815608 195.50186726 6.16410219 196.76555409 C6.09882509 216.6275467 5.98055345 236.48888835 5.84270806 256.35049473 C5.70245342 276.72914603 5.61912253 297.10745632 5.58867258 317.48657048 C5.56808598 330.06286956 5.50306324 342.63732881 5.381253 355.21306153 C5.30198433 363.83583569 5.27799258 372.45765831 5.29747934 381.08077042 C5.30709243 386.05732594 5.29232956 391.03066677 5.21191788 396.00665092 C5.13877992 400.56585437 5.13529305 405.1196919 5.18651658 409.67914523 C5.19284327 411.32545024 5.17389904 412.97209319 5.12675226 414.61773513 C4.75866014 423.18135353 4.75866014 423.18135353 8.43216126 430.61703721 C12.5426355 434.13605869 17.16465945 436.62685831 22 439 C23.04089657 439.53170777 23.04089657 439.53170777 24.10282136 440.0741571 C31.49347245 443.8490267 38.92125566 447.00130857 47 449 C48.07664917 449.26744019 48.07664917 449.26744019 49.17504883 449.5402832 C95.27328394 459.85283371 138.89229517 434.96600546 178.3125 414.625 C179.76968246 413.87432653 181.2268766 413.12367575 182.68408203 412.37304688 C190.27244314 408.46084494 197.83820216 404.51082484 205.375 400.5 C222.56357861 391.39197864 240.03034936 383.16675701 258.75 377.75 C260.02689697 377.38032104 260.02689697 377.38032104 261.32958984 377.00317383 C263.877473 376.29182216 266.43099695 375.63070893 269 375 C269.81960205 374.79842285 270.6392041 374.5968457 271.48364258 374.38916016 C280.00213118 372.56451745 288.52853601 372.77578368 297.1875 372.875 C298.72720768 372.88505603 300.26692176 372.89417721 301.80664062 372.90234375 C305.53789587 372.92413532 309.26890554 372.95851858 313 373 C310.79868317 369.60998996 308.63646691 366.39383291 305.86328125 363.44921875 C305.2906958 362.83771973 304.71811035 362.2262207 304.12817383 361.59619141 C303.52900146 360.96632324 302.9298291 360.33645508 302.3125 359.6875 C301.37603638 358.6962915 301.37603638 358.6962915 300.4206543 357.68505859 C298.6194759 355.78450002 296.81101055 353.89118549 295 352 C294.1646875 351.12214844 293.329375 350.24429687 292.46875 349.33984375 C287.01627968 343.73920847 281.10457973 338.86959433 275 334 C273.88771678 333.07614907 272.7771064 332.15028128 271.66796875 331.22265625 C256.99561478 319.05538768 240.91098508 309.11697203 224.12646484 300.14111328 C222.10319241 299.05537558 220.09176446 297.95039242 218.08203125 296.83984375 C207.67869933 291.14762576 196.95142605 286.20333805 186.18429565 281.24293518 C104.89238189 243.78476378 104.89238189 243.78476378 98 230 C99.27875 229.79375 100.5575 229.5875 101.875 229.375 C129.02289801 223.84628482 153.92846979 209.20727078 178.3125 196.625 C179.76968246 195.87432653 181.2268766 195.12367575 182.68408203 194.37304688 C189.51391281 190.85190749 196.33205854 187.31213848 203.11547852 183.70214844 C228.7239644 170.07749317 258.08293402 154.68030036 287.8046875 154.90234375 C288.8906572 154.90446617 288.8906572 154.90446617 289.99856567 154.90663147 C292.29075407 154.91218925 294.58284157 154.92473367 296.875 154.9375 C298.43749858 154.94252047 299.99999871 154.94708241 301.5625 154.95117188 C305.37503835 154.96214481 309.18750212 154.9793799 313 155 C277.84168518 119.08775754 221.06779318 114.75819888 174.20800781 110.31835938 C162.04768328 109.14029025 150.01732522 107.65454057 137.984375 105.51953125 C136.86018158 105.32057251 135.73598816 105.12161377 134.57772827 104.91662598 C116.90873035 101.64455875 100.06060472 96.04538982 84 88 C83.32420898 87.66274902 82.64841797 87.32549805 81.95214844 86.97802734 C65.86331193 78.79377372 51.9276089 67.50823653 39 55 C38.05511719 54.09507813 37.11023438 53.19015625 36.13671875 52.2578125 C27.28263759 43.61191859 19.73884601 34.07516626 12.27319336 24.23876953 C10.59914079 22.03808298 8.9579863 19.9579863 7 18 Z " fill="#2C479B" transform="translate(73,37)"/>
<path d="M0 0 C0.66 0 1.32 0 2 0 C3.33934716 2.95564708 4.67044247 5.9149378 6 8.875 C6.3815625 9.71675781 6.763125 10.55851562 7.15625 11.42578125 C7.5171875 12.23144531 7.878125 13.03710938 8.25 13.8671875 C8.75273437 14.98262939 8.75273437 14.98262939 9.265625 16.12060547 C10 18 10 18 10 20 C17.08470943 14.08218389 23.52848604 7.56858667 30 1 C31.02451301 4.23392606 30.95041862 6.64525388 30.44140625 9.984375 C30.30283203 10.91894531 30.16425781 11.85351562 30.02148438 12.81640625 C29.87001953 13.78449219 29.71855469 14.75257813 29.5625 15.75 C29.41490234 16.73355469 29.26730469 17.71710938 29.11523438 18.73046875 C28.75041022 21.15478412 28.37843254 23.57777798 28 26 C28.65597168 25.66154053 29.31194336 25.32308105 29.98779297 24.97436523 C32.94603407 23.45381567 35.91036119 21.94553498 38.875 20.4375 C39.90753906 19.90447266 40.94007813 19.37144531 42.00390625 18.82226562 C43.48310547 18.07299805 43.48310547 18.07299805 44.9921875 17.30859375 C45.90339355 16.84251709 46.81459961 16.37644043 47.75341797 15.89624023 C48.49479004 15.60048096 49.23616211 15.30472168 50 15 C50.99 15.495 50.99 15.495 52 16 C47.71 23.59 43.42 31.18 39 39 C45.93 39.33 52.86 39.66 60 40 C60 40.66 60 41.32 60 42 C58.43059199 43.43812673 56.79125965 44.8003005 55.125 46.125 C54.13113281 46.92292969 53.13726562 47.72085938 52.11328125 48.54296875 C50.09517145 50.13568025 48.07202111 51.72203377 46.04296875 53.30078125 C45.14191406 54.00589844 44.24085938 54.71101563 43.3125 55.4375 C42.48363281 56.07558594 41.65476562 56.71367187 40.80078125 57.37109375 C40.20652344 57.90863281 39.61226563 58.44617188 39 59 C39 59.66 39 60.32 39 61 C40.62092592 62.60059293 40.62092592 62.60059293 42.6875 64.25 C46.23964603 67.25954469 49.13970369 70.33524535 52 74 C44.09273955 77.26431995 36.48377394 78.97493351 28 80 C28.13631836 80.87736816 28.13631836 80.87736816 28.27539062 81.77246094 C28.68669454 84.43117164 29.0933925 87.09056718 29.5 89.75 C29.64308594 90.67039062 29.78617187 91.59078125 29.93359375 92.5390625 C30.06894531 93.42851562 30.20429688 94.31796875 30.34375 95.234375 C30.53227539 96.45979004 30.53227539 96.45979004 30.72460938 97.70996094 C31 100 31 100 31 104 C26.15713185 102.50640515 21.68649104 100.54966433 17.125 98.375 C16.43664062 98.05015625 15.74828125 97.7253125 15.0390625 97.390625 C13.35794781 96.59676528 11.67877079 95.79880442 10 95 C9.84144531 95.57105469 9.68289062 96.14210938 9.51953125 96.73046875 C7.43046536 103.99026126 4.78353698 110.98064587 2 118 C1.34 118 0.68 118 0 118 C-1.33912585 114.87745057 -2.67030658 111.75157642 -4 108.625 C-4.3815625 107.73554688 -4.763125 106.84609375 -5.15625 105.9296875 C-5.5171875 105.07890625 -5.878125 104.228125 -6.25 103.3515625 C-6.58515625 102.56604004 -6.9203125 101.78051758 -7.265625 100.97119141 C-8 99 -8 99 -8 97 C-13.72183978 100.12100351 -19.0558846 103.69839995 -24.42578125 107.390625 C-27 109 -27 109 -29 109 C-28.01 101.08 -27.02 93.16 -26 85 C-28.97 85 -31.94 85 -35 85 C-37.77031938 84.4173225 -40.36704216 83.80347988 -43.0625 83 C-44.07473633 82.71382812 -44.07473633 82.71382812 -45.10742188 82.421875 C-46.74128248 81.95836845 -48.37112178 81.48072295 -50 81 C-48.19860695 76.3337409 -44.52080696 73.71502947 -40.8125 70.53515625 C-39.50864243 69.39341854 -38.2503145 68.20013466 -37 67 C-37 66.34 -37 65.68 -37 65 C-38.64087874 63.70925452 -40.34018552 62.49238973 -42.0625 61.3125 C-46.35000528 58.28472565 -50.08624222 55.18371557 -53.66015625 51.34765625 C-54.9794674 49.87735621 -54.9794674 49.87735621 -57 49 C-57 48.34 -57 47.68 -57 47 C-55.72382812 46.93941406 -54.44765625 46.87882812 -53.1328125 46.81640625 C-51.46352984 46.73200432 -49.79425963 46.64735614 -48.125 46.5625 C-47.28324219 46.52318359 -46.44148438 46.48386719 -45.57421875 46.44335938 C-44.76855469 46.40146484 -43.96289062 46.35957031 -43.1328125 46.31640625 C-42.38918457 46.27974854 -41.64555664 46.24309082 -40.87939453 46.20532227 C-38.91135688 46.10044135 -38.91135688 46.10044135 -37 45 C-37.39904541 44.34402832 -37.79809082 43.68805664 -38.20922852 43.01220703 C-40.00199062 40.05476559 -41.78236373 37.0900567 -43.5625 34.125 C-44.19091797 33.09246094 -44.81933594 32.05992187 -45.46679688 30.99609375 C-46.05654297 30.00996094 -46.64628906 29.02382813 -47.25390625 28.0078125 C-48.07870483 26.64100342 -48.07870483 26.64100342 -48.92016602 25.24658203 C-49.27651123 24.50520996 -49.63285645 23.76383789 -50 23 C-49.67 22.34 -49.34 21.68 -49 21 C-48.01 21.47050781 -47.02 21.94101562 -46 22.42578125 C-44.66674451 23.0548525 -43.33340673 23.68374939 -42 24.3125 C-41.02740234 24.7755957 -41.02740234 24.7755957 -40.03515625 25.24804688 C-35.43181714 27.41298358 -30.78248736 29.26528081 -26 31 C-26.09611572 30.34926514 -26.19223145 29.69853027 -26.29125977 29.02807617 C-26.72223842 26.0822227 -27.1424858 23.13493586 -27.5625 20.1875 C-27.71396484 19.16333984 -27.86542969 18.13917969 -28.02148438 17.08398438 C-28.16005859 16.10107422 -28.29863281 15.11816406 -28.44140625 14.10546875 C-28.57232666 13.19949951 -28.70324707 12.29353027 -28.83813477 11.36010742 C-29 9 -29 9 -28 6 C-27.39414063 6.56847656 -26.78828125 7.13695312 -26.1640625 7.72265625 C-20.4167727 13.01900485 -14.51681962 17.68780659 -8 22 C-7.86271484 21.03513672 -7.86271484 21.03513672 -7.72265625 20.05078125 C-6.73874644 15.89708631 -5.09838357 12.11113187 -3.4375 8.1875 C-3.10814453 7.39923828 -2.77878906 6.61097656 -2.43945312 5.79882812 C-1.63041094 3.86416204 -0.81576148 1.93184247 0 0 Z " fill="#FEFCFC" transform="translate(154,317)"/>
<path d="M0 0 C0.33 0 0.66 0 1 0 C1.95983761 13.43772657 -2.85191947 26.2695219 -9 38 C-9.50144531 38.99515625 -10.00289063 39.9903125 -10.51953125 41.015625 C-19.05459643 56.88129362 -33.56846868 70.66354534 -50.7734375 76.61328125 C-64.55817411 79.00747234 -75.92297285 76.57552373 -87.4375 68.8671875 C-102.90906162 57.59370205 -112.92236327 37.40816828 -116.6015625 18.98828125 C-116.97951713 16.15362153 -117.10109994 13.48139593 -117.0625 10.625 C-117.05347656 9.75101563 -117.04445313 8.87703125 -117.03515625 7.9765625 C-117.02355469 7.32429687 -117.01195313 6.67203125 -117 6 C-114.94081977 9.08877035 -113.74948301 11.99361379 -112.375 15.4375 C-107.83082704 26.3344579 -101.07426725 37.29028421 -92 45 C-90.68 45 -89.36 45 -88 45 C-89.36370299 42.00779732 -90.94908083 39.70973471 -93.125 37.25 C-94.07375 36.1775 -95.0225 35.105 -96 34 C-90.555 33.505 -90.555 33.505 -85 33 C-85.825 31.55625 -86.65 30.1125 -87.5 28.625 C-90 24.25 -90 24.25 -90 22 C-86.04 22.99 -82.08 23.98 -78 25 C-78.495 24.01 -78.495 24.01 -79 23 C-79.06950541 21.45976004 -79.08452357 19.91665012 -79.0625 18.375 C-79.05347656 17.55773437 -79.04445312 16.74046875 -79.03515625 15.8984375 C-79.02355469 15.27195313 -79.01195312 14.64546875 -79 14 C-74 16 -74 16 -69 18 C-68.01 14.7 -67.02 11.4 -66 8 C-65.2575 8.78375 -64.515 9.5675 -63.75 10.375 C-61.40578023 12.61266433 -59.85675015 13.69370826 -57 15 C-56.66226563 14.4225 -56.32453125 13.845 -55.9765625 13.25 C-55.30753906 12.13625 -55.30753906 12.13625 -54.625 11 C-54.18414062 10.2575 -53.74328125 9.515 -53.2890625 8.75 C-52.86367187 8.1725 -52.43828125 7.595 -52 7 C-51.34 7 -50.68 7 -50 7 C-49.01 11.95 -49.01 11.95 -48 17 C-47.28972656 16.4946875 -46.57945312 15.989375 -45.84765625 15.46875 C-44.46900391 14.49421875 -44.46900391 14.49421875 -43.0625 13.5 C-42.14597656 12.8503125 -41.22945313 12.200625 -40.28515625 11.53125 C-38 10 -38 10 -37 10 C-37.33 13.63 -37.66 17.26 -38 21 C-36.39125 20.319375 -34.7825 19.63875 -33.125 18.9375 C-30.3828125 17.77734375 -30.3828125 17.77734375 -28 17 C-27.34 17.33 -26.68 17.66 -26 18 C-27.65 21.3 -29.3 24.6 -31 28 C-27.7 28.33 -24.4 28.66 -21 29 C-26.75 36.75 -26.75 36.75 -29 39 C-27.16346343 39.73330104 -27.16346343 39.73330104 -25 40 C-12.39011633 32.7226542 -5.208102 12.70020403 0 0 Z " fill="#FEFBFC" transform="translate(213,177)"/>
</svg>
