<?xml version="1.0" encoding="iso-8859-1"?>
<!-- Uploaded to: SVG Repo, www.svgrepo.com, Generator: SVG Repo Mixer Tools -->
<svg version="1.1" id="Layer_1" xmlns="http://www.w3.org/2000/svg" xmlns:xlink="http://www.w3.org/1999/xlink" 
	 viewBox="0 0 512 512" xml:space="preserve">
<rect x="179.04" y="204.693" style="fill:#FFCF65;" width="153.921" height="34.205"/>
<rect x="110.63" y="367.165" style="fill:#FF4B4B;" width="290.739" height="94.063"/>
<rect x="136.284" y="307.307" style="fill:#FFCF65;" width="239.432" height="34.205"/>
<g>
	<path style="fill:#625D6B;" d="M420.889,367.324l-45.172-25.813H136.284l-45.173,25.813c-3.999,2.285-2.377,8.392,2.229,8.392
		h325.32C423.266,375.716,424.888,369.609,420.889,367.324z"/>
	<path style="fill:#625D6B;" d="M256,84.977c-26.767,51.527-79.719,74.776-101.481,82.449c-4.378,1.543-5.597,7.15-2.314,10.432
		l26.835,26.835H332.96l26.835-26.835c3.283-3.283,2.064-8.889-2.314-10.432C335.719,159.753,282.767,136.504,256,84.977z"/>
</g>
<circle style="fill:#FFCF65;" cx="256" cy="67.875" r="17.102"/>
<path style="fill:#504B5A;" d="M332.96,238.898H179.04l-68.996,30.664c-3.838,1.706-4.772,6.732-1.801,9.702l28.041,28.042h239.432
	l28.041-28.041c2.97-2.97,2.037-7.996-1.801-9.702L332.96,238.898z"/>
<path style="fill:#625D6B;" d="M405.039,273.102c-0.516-1.481-1.477-2.826-3.083-3.54l-68.996-30.664H179.04l-68.996,30.664
	c-1.605,0.713-2.566,2.059-3.083,3.54H405.039z"/>
<path style="fill:#504B5A;" d="M360.767,170.489H151.233c-1.214,2.326-1.119,5.279,0.972,7.371l26.835,26.834H332.96l26.834-26.834
	C361.886,175.768,361.98,172.814,360.767,170.489z"/>
<rect x="230.347" y="170.489" style="fill:#5091D7;" width="51.307" height="76.96"/>
<g>
	<rect x="25.119" y="427.023" style="fill:#EDEDEE;" width="196.676" height="34.205"/>
	<rect x="290.205" y="427.023" style="fill:#EDEDEE;" width="196.676" height="34.205"/>
</g>
<path d="M503.983,453.211h-9.086v-26.188c0-4.427-3.589-8.017-8.017-8.017h-77.495v-35.273h26.188c3.635,0,6.815-2.446,7.748-5.959
	c0.933-3.513-0.615-7.215-3.77-9.018l-55.82-31.896v-26.232l31.856-31.856c2.293-2.293,2.979-5.741,1.738-8.736
	c-0.803-1.938-2.314-3.428-4.156-4.247l0.005-0.011l-72.199-32.09v-25.675l31.856-31.856c2.293-2.293,2.979-5.741,1.738-8.736
	c-0.98-2.368-3.017-4.065-5.427-4.681l0.004-0.018c-0.699-0.179-66.992-17.686-101.122-72.801
	c7.794-4.27,13.092-12.55,13.092-22.046c0-13.851-11.268-25.119-25.119-25.119c-13.851,0-25.119,11.268-25.119,25.119
	c0,9.495,5.296,17.775,13.089,22.044c-34.06,54.954-100.427,72.624-101.119,72.802l0.004,0.018
	c-2.409,0.616-4.446,2.314-5.427,4.681c-1.241,2.996-0.555,6.443,1.738,8.736l31.857,31.857v25.675l-72.199,32.088l0.005,0.011
	c-1.842,0.819-3.353,2.309-4.156,4.247c-1.241,2.996-0.555,6.443,1.738,8.736l31.856,31.857v26.232l-55.819,31.897
	c-3.156,1.803-4.703,5.505-3.77,9.018c0.932,3.513,4.112,5.959,7.747,5.959h26.188v35.273H25.119c-4.427,0-8.017,3.589-8.017,8.017
	v26.188H8.017C3.589,453.211,0,456.8,0,461.228s3.589,8.017,8.017,8.017h495.967c4.427,0,8.017-3.589,8.017-8.017
	S508.411,453.211,503.983,453.211z M144.301,315.324h223.399v18.171H144.301V315.324z M273.637,178.505v60.927h-35.273v-60.927
	H273.637z M324.944,230.881H289.67V212.71h35.273V230.881z M222.33,230.881h-35.273V212.71h35.273V230.881z M180.741,246.914h41.589
	v0.534c0,4.427,3.589,8.017,8.017,8.017h51.307c4.427,0,8.017-3.589,8.017-8.017v-0.534h41.588l40.885,18.171H139.856
	L180.741,246.914z M329.64,196.676h-39.97v-18.171h58.141L329.64,196.676z M256,58.789c5.01,0,9.086,4.076,9.086,9.086
	S261.01,76.96,256,76.96c-5.01,0-9.086-4.076-9.086-9.086S250.99,58.789,256,58.789z M256,100.919
	c19.546,30.287,47.3,49.732,69.947,61.553H186.053C208.7,150.651,236.454,131.206,256,100.919z M222.33,178.505v18.171h-39.97
	l-18.171-18.171H222.33z M390.567,281.119l-18.171,18.171H139.604l-18.171-18.171H390.567z M138.413,349.528h235.175l31.8,18.171
	H106.614L138.413,349.528z M118.647,383.733h274.706v35.273h-52.376v-9.086c0-4.427-3.589-8.017-8.017-8.017
	c-4.427,0-8.017,3.589-8.017,8.017v9.086h-34.739c-4.427,0-8.017,3.589-8.017,8.017v26.188h-18.171v-43.29
	c0-4.427-3.589-8.017-8.017-8.017c-4.427,0-8.017,3.589-8.017,8.017v43.29h-18.171v-26.188c0-4.427-3.589-8.017-8.017-8.017h-34.739
	v-9.086c0-4.427-3.589-8.017-8.017-8.017s-8.017,3.589-8.017,8.017v9.086h-52.376V383.733z M33.136,453.211V435.04h180.643v18.171
	H33.136z M298.221,453.211V435.04h180.643v18.171H298.221z"/>
</svg>